<?xml version="1.0" encoding="UTF-8" standalone="no"?>
<!-- Created with Inkscape (http://www.inkscape.org/) -->

<svg
   width="16"
   height="16"
   viewBox="0 0 4.2333332 4.2333333"
   version="1.1"
   id="svg1"
   xml:space="preserve"
   sodipodi:docname="little_doodles_client.svg"
   inkscape:version="1.3 (0e150ed6c4, 2023-07-21)"
   xmlns:inkscape="http://www.inkscape.org/namespaces/inkscape"
   xmlns:sodipodi="http://sodipodi.sourceforge.net/DTD/sodipodi-0.dtd"
   xmlns="http://www.w3.org/2000/svg"
   xmlns:svg="http://www.w3.org/2000/svg"><sodipodi:namedview
     id="namedview1"
     pagecolor="#505050"
     bordercolor="#eeeeee"
     borderopacity="1"
     inkscape:showpageshadow="0"
     inkscape:pageopacity="0"
     inkscape:pagecheckerboard="0"
     inkscape:deskcolor="#505050"
     inkscape:document-units="mm"
     showgrid="true"
     inkscape:zoom="32"
     inkscape:cx="7.703125"
     inkscape:cy="6.453125"
     inkscape:window-width="1920"
     inkscape:window-height="1027"
     inkscape:window-x="-8"
     inkscape:window-y="-8"
     inkscape:window-maximized="1"
     inkscape:current-layer="layer1"><inkscape:grid
       id="grid1"
       units="px"
       originx="0"
       originy="0"
       spacingx="0.26458332"
       spacingy="0.26458333"
       empcolor="#0099e5"
       empopacity="0.30196078"
       color="#0099e5"
       opacity="0.14901961"
       empspacing="5"
       dotted="false"
       gridanglex="30"
       gridanglez="30"
       visible="true" /></sodipodi:namedview><defs
     id="defs1"><filter
       id="mask-powermask-path-effect10_inverse"
       inkscape:label="filtermask-powermask-path-effect10"
       style="color-interpolation-filters:sRGB"
       height="100"
       width="100"
       x="-50"
       y="-50"><feColorMatrix
         id="mask-powermask-path-effect10_primitive1"
         values="1"
         type="saturate"
         result="fbSourceGraphic" /><feColorMatrix
         id="mask-powermask-path-effect10_primitive2"
         values="-1 0 0 0 1 0 -1 0 0 1 0 0 -1 0 1 0 0 0 1 0 "
         in="fbSourceGraphic" /></filter><filter
       id="mask-powermask-path-effect15_inverse"
       inkscape:label="filtermask-powermask-path-effect15"
       style="color-interpolation-filters:sRGB"
       height="100"
       width="100"
       x="-50"
       y="-50"><feColorMatrix
         id="mask-powermask-path-effect15_primitive1"
         values="1"
         type="saturate"
         result="fbSourceGraphic" /><feColorMatrix
         id="mask-powermask-path-effect15_primitive2"
         values="-1 0 0 0 1 0 -1 0 0 1 0 0 -1 0 1 0 0 0 1 0 "
         in="fbSourceGraphic" /></filter><filter
       id="mask-powermask-path-effect17_inverse"
       inkscape:label="filtermask-powermask-path-effect17"
       style="color-interpolation-filters:sRGB"
       height="100"
       width="100"
       x="-50"
       y="-50"><feColorMatrix
         id="mask-powermask-path-effect17_primitive1"
         values="1"
         type="saturate"
         result="fbSourceGraphic" /><feColorMatrix
         id="mask-powermask-path-effect17_primitive2"
         values="-1 0 0 0 1 0 -1 0 0 1 0 0 -1 0 1 0 0 0 1 0 "
         in="fbSourceGraphic" /></filter></defs><g
     inkscape:label="Layer 1"
     inkscape:groupmode="layer"
     id="layer1"><g
       id="g7"
       transform="matrix(-1,0,0,1,6.8791666,0.52916677)"><g
         id="g8"
         transform="translate(3.7589902e-8,0.79375)"><path
           style="fill:#ce53ed;fill-opacity:1;stroke:none;stroke-width:0.264583px;stroke-linecap:butt;stroke-linejoin:miter;stroke-opacity:1"
           d="M 2.9104166,0.7937498 H 3.96875 L 3.7041666,0 H 3.4395833 Z"
           id="path2" /><rect
           style="fill:#ce53ed;fill-opacity:1;stroke:none;stroke-width:0.705556"
           id="rect2"
           width="0.52916664"
           height="1.8520832"
           x="2.9104166"
           y="-2.9104164"
           transform="scale(1,-1)" /><rect
           style="fill:#ce53ed;fill-opacity:1;stroke:none;stroke-width:0.705556"
           id="rect3"
           width="0.26458332"
           height="1.8520832"
           x="3.7041667"
           y="-2.9104164"
           transform="scale(1,-1)" /><rect
           style="fill:#ce53ed;fill-opacity:1;stroke:none;stroke-width:0.705556"
           id="rect4"
           width="0.26458332"
           height="0.26458332"
           x="3.4395833"
           y="-2.9104164"
           transform="scale(1,-1)" /><rect
           style="fill:#ce53ed;fill-opacity:1;stroke:none;stroke-width:0.705556"
           id="rect5"
           width="0.26458338"
           height="0.26458311"
           x="3.4395833"
           y="-1.3229165"
           transform="scale(1,-1)" /></g></g><circle
       style="fill:#ce53ed;fill-opacity:1;stroke:none;stroke-width:0.705556"
       id="path8"
       cx="0.79374999"
       cy="3.4395831"
       r="0.52916664" /><path
       id="path9-0"
       style="fill:#ce53ed;fill-opacity:1;stroke:none;stroke-width:0.379915"
       d="m 0.52916662,1.8520852 a 1.8520833,1.8520833 0 0 0 -0.2645834,0.018603 v 0.5405355 a 1.3229167,1.3229167 0 0 1 0.2645834,-0.029972 1.3229167,1.3229167 0 0 1 1.21181228,0.79375 H 2.1166666 V 2.7502216 A 1.8520833,1.8520833 0 0 0 0.52916662,1.8520852 Z" /><path
       id="path9-0-4"
       style="fill:#ce53ed;fill-opacity:1;stroke:none;stroke-width:0.705556"
       d="m 0.52916661,0 a 3.4395833,3.4395833 0 0 0 -0.2645833,0.0191203 v 0.5286499 a 2.9104166,2.9104166 0 0 1 0.2645833,-0.0186035 2.9104166,2.9104166 0 0 1 1.99626059,0.79375 H 2.9104166 V 0.9585979 A 3.4395833,3.4395833 0 0 0 0.52916661,0 Z" /><path
       id="path9-0-4-8"
       style="fill:#ce53ed;fill-opacity:1;stroke:none;stroke-width:0.542735"
       d="m 0.52916666,0.79374996 a 2.6458333,2.6458333 0 0 0 -0.2645833,0.0191202 V 1.3420369 A 2.1166673,2.1166673 0 0 1 0.52916666,1.3229169 2.1166673,2.1166673 0 0 1 2.361613,2.3812503 H 2.6458334 V 1.8526001 A 2.6458333,2.6458333 0 0 0 0.52916666,0.79374996 Z" /></g></svg>
